<?xml version="1.0" encoding="utf-8"?>
<!-- Generator: Adobe Illustrator 23.1.0, SVG Export Plug-In . SVG Version: 6.00 Build 0)  -->
<svg version="1.1" xmlns="http://www.w3.org/2000/svg" xmlns:xlink="http://www.w3.org/1999/xlink" x="0px" y="0px"
	 viewBox="0 0 61.33 69.71" style="enable-background:new 0 0 61.33 69.71;" xml:space="preserve">
<style type="text/css">
	.st0{display:none;}
	.st1{display:inline;}
	.st2{fill:none;stroke:#99fff;stroke-linecap:round;stroke-linejoin:round;stroke-miterlimit:10;}
</style>
<g id="Layer_1" class="st0">
	<g class="st1">
		<path d="M16.98,37.91c-0.63-0.55-1.3-1-1.82-1.59c-1.76-2-2.22-4.32-1.29-6.81c0.93-2.48,2.78-4.04,5.43-4.29
			c2.17-0.2,4.37-0.08,6.55-0.11c0.23,0,0.46,0,0.8,0c-0.19-0.17-0.3-0.27-0.41-0.37c-1.99-1.66-3.02-3.79-3.06-6.37
			c-0.03-1.94-0.01-3.88-0.01-5.81c0-0.6,0.28-0.95,0.73-0.95c0.45,0,0.73,0.36,0.73,0.95c0,1.89,0,3.78,0,5.67
			c0,3.91,2.97,6.87,6.89,6.87c3.08,0,6.16,0,9.23,0c0.14,0,0.28-0.01,0.42,0.01c0.41,0.04,0.73,0.36,0.7,0.74
			c-0.03,0.41-0.28,0.65-0.68,0.71c-0.15,0.02-0.31,0.01-0.47,0.01c-6.83,0-13.66,0-20.49,0c-2.71,0-4.81,1.76-5.3,4.43
			c-0.56,3.05,1.91,6.08,5.02,6.1c3.67,0.03,7.34,0.01,11.02,0.01c3.27,0,6.53,0,9.8,0c0.14,0,0.28-0.01,0.42,0.01
			c0.4,0.06,0.65,0.3,0.67,0.72c0.02,0.36-0.28,0.68-0.66,0.73c-0.15,0.02-0.31,0.01-0.47,0.01c-6.83,0-13.66,0-20.49,0
			c-3.13,0-5.44,2.36-5.38,5.49c0.05,2.68,2.38,5.02,5.07,5.05c2.72,0.02,5.44,0.01,8.16,0.01c2.47,0,4.03,1.57,4.03,4.05
			c0,1.27,0,2.53,0,3.8c0,0.09,0,0.19,0,0.28c-0.02,0.49-0.3,0.82-0.71,0.83c-0.43,0.01-0.75-0.33-0.75-0.84
			c-0.01-1.39,0-2.78,0-4.17c0-1.58-0.91-2.49-2.51-2.49c-2.66,0-5.31,0.01-7.97,0c-3.27-0.02-5.95-2.21-6.63-5.41
			c-0.57-2.66,0.62-5.48,2.95-6.98C16.67,38.1,16.83,38,16.98,37.91z"/>
		<path d="M44.38,31.77c0.72,0.67,1.51,1.24,2.07,1.98c1.66,2.16,1.93,4.56,0.75,7.01c-1.19,2.46-3.25,3.74-5.99,3.82
			c-1.98,0.06-3.97,0.01-5.95,0.01c-0.16,0-0.33,0-0.62,0c0.21,0.18,0.32,0.28,0.43,0.37c1.99,1.66,3.01,3.79,3.06,6.38
			c0.03,1.94,0.01,3.88,0.01,5.81c0,0.59-0.29,0.95-0.75,0.94c-0.44-0.01-0.71-0.36-0.72-0.92c0-1.92,0-3.85,0-5.77
			c-0.01-3.82-2.99-6.8-6.81-6.81c-3.11-0.01-6.22,0-9.33,0c-0.14,0-0.28,0.01-0.42-0.01c-0.41-0.06-0.65-0.3-0.68-0.71
			c-0.03-0.37,0.29-0.7,0.7-0.74c0.15-0.02,0.31-0.01,0.47-0.01c6.81,0,13.63,0,20.44,0c3.2,0,5.54-2.48,5.38-5.67
			c-0.14-2.63-2.47-4.86-5.15-4.86c-6.64-0.01-13.28,0-19.93-0.01c-0.16,0-0.31,0.01-0.47-0.01c-0.41-0.05-0.72-0.37-0.69-0.75
			c0.04-0.41,0.28-0.65,0.69-0.7c0.15-0.02,0.31-0.01,0.47-0.01c6.56,0,13.13,0,19.69,0c2.74,0,4.84-1.76,5.33-4.45
			c0.55-3.03-1.91-6.05-5-6.08c-2.72-0.03-5.44-0.01-8.16-0.01c-2.47,0-4.04-1.57-4.04-4.04c0-1.33,0-2.66,0-3.99
			c0-0.59,0.3-0.95,0.75-0.93c0.44,0.01,0.71,0.36,0.71,0.93c0,1.41,0,2.81,0,4.22c0,1.39,0.96,2.35,2.36,2.35
			c2.7,0,5.41-0.01,8.11,0c3.27,0.02,5.95,2.2,6.64,5.4c0.57,2.65-0.65,5.53-2.96,6.98C44.64,31.6,44.48,31.7,44.38,31.77z"/>
	</g>
</g>
<g id="Layer_2">
	<path class="st2" d="M31.44,57.13c0-7.25,0-7.25-12.01-7.25c-7.19,0-7.19-12.06,0-12.06c4.11,0,22.1,0,22.1,0h-0.26
		c0,0-6.42,0-21.84,0c-7.19,0-7.19-11.8,0-11.8c6.55,0,12.83,0,12.83,0h9.01c0,0-2.01,0-9.01,0c-8.07,0-8.28-4.76-8.33-7.57
		c-0.03-1.5,0-6.01,0-6.01"/>
	<path class="st2" d="M37.47,57.13c0-4.11,1.35-13.19-8.98-13.17c-2.85,0.01-5.59-0.02-6.84-0.02c-1.4,0-1.4,0-1.4,0h-1.18h21.84
		c7.47,0,7.83-12.02,0.35-12.01c-14.35,0-20.4,0-20.4,0l20.4,0c7.47,0,7.47-12.15,0-12.15c-7.59,0-1-0.04-7.59,0
		c-2.27,0.01-3.58-0.71-3.64-2.88c0-5.16,0-4.63,0-4.63"/>
</g>
</svg>
